<?xml version="1.0" standalone="no"?><!DOCTYPE svg PUBLIC "-//W3C//DTD SVG 1.1//EN" "http://www.w3.org/Graphics/SVG/1.1/DTD/svg11.dtd"><svg class="icon" width="200px" height="200.00px" viewBox="0 0 1024 1024" version="1.1" xmlns="http://www.w3.org/2000/svg"><path fill="#2c2c2c" d="M155.252 943.825c-19.213 0-38.429-7.332-53.089-21.988-29.317-29.321-29.317-76.855 0-106.175l713.494-713.494c29.317-29.321 76.853-29.321 106.175 0 29.317 29.317 29.317 76.855 0 106.175l-713.494 713.494c-14.66 14.66-33.874 21.988-53.089 21.988z"  /><path fill="#2c2c2c" d="M868.749 943.824c-19.213 0-38.428-7.332-53.089-21.988l-713.494-713.493c-29.317-29.317-29.317-76.857 0-106.175 29.316-29.317 76.855-29.321 106.174 0l713.494 713.492c29.317 29.321 29.317 76.855 0 106.175-14.657 14.661-33.871 21.993-53.087 21.993z"  /></svg>