<?xml version="1.0" standalone="no"?><!DOCTYPE svg PUBLIC "-//W3C//DTD SVG 1.1//EN" "http://www.w3.org/Graphics/SVG/1.1/DTD/svg11.dtd"><svg t="1530338390048" class="icon" style="" viewBox="0 0 1026 1024" version="1.1" xmlns="http://www.w3.org/2000/svg" p-id="4389" xmlns:xlink="http://www.w3.org/1999/xlink" width="200.390625" height="200"><defs><style type="text/css"></style></defs><path d="M79.288 400c19.2 0 38.4 9.6 54.4 25.6l240 249.6c12.8 16 19.2 16 35.2 0 147.2-153.6 294.4-304 441.6-457.6 16-16 32-35.2 48-51.2 28.8-28.8 70.4-32 99.2-6.4 32 25.6 38.4 73.6 9.6 105.6-32 38.4-67.2 73.6-102.4 108.8-150.4 156.8-300.8 313.6-454.4 470.4-38.4 38.4-80 41.6-115.2 6.4-105.6-108.8-211.2-217.6-313.6-326.4-22.4-25.6-28.8-54.4-12.8-83.2 12.8-25.6 35.2-41.6 70.4-41.6z" fill="#666666" p-id="4390"></path></svg>